<?xml version="1.0" encoding="UTF-8" standalone="no"?>
<!-- Created with Inkscape (http://www.inkscape.org/) -->

<svg
   xmlns:dc="http://purl.org/dc/elements/1.1/"
   xmlns:cc="http://creativecommons.org/ns#"
   xmlns:rdf="http://www.w3.org/1999/02/22-rdf-syntax-ns#"
   xmlns:svg="http://www.w3.org/2000/svg"
   xmlns="http://www.w3.org/2000/svg"
   xmlns:sodipodi="http://sodipodi.sourceforge.net/DTD/sodipodi-0.dtd"
   xmlns:inkscape="http://www.inkscape.org/namespaces/inkscape"
   id="svg2837"
   version="1.1"
   inkscape:version="0.47pre4 r22446"
   width="128.05701"
   height="99.712318"
   xml:space="preserve"
   sodipodi:docname="Pair_of_pants_cobordism_(pantslike).svg"><metadata
     id="metadata2843"><rdf:RDF><cc:Work
         rdf:about=""><dc:format>image/svg+xml</dc:format><dc:type
           rdf:resource="http://purl.org/dc/dcmitype/StillImage" /><dc:title /></cc:Work></rdf:RDF></metadata><defs
     id="defs2841"><inkscape:perspective
       sodipodi:type="inkscape:persp3d"
       inkscape:vp_x="0 : 0.5 : 1"
       inkscape:vp_y="0 : 1000 : 0"
       inkscape:vp_z="1 : 0.5 : 1"
       inkscape:persp3d-origin="0.5 : 0.33333333 : 1"
       id="perspective2845" /></defs><sodipodi:namedview
     pagecolor="#ffffff"
     bordercolor="#666666"
     borderopacity="1"
     objecttolerance="10"
     gridtolerance="10"
     guidetolerance="10"
     inkscape:pageopacity="1"
     inkscape:pageshadow="2"
     inkscape:window-width="1292"
     inkscape:window-height="906"
     id="namedview2839"
     showgrid="false"
     inkscape:zoom="2.6522171"
     inkscape:cx="7.5324702"
     inkscape:cy="15.695176"
     inkscape:window-x="0"
     inkscape:window-y="0"
     inkscape:window-maximized="0"
     inkscape:current-layer="g2907" /><g
     id="g2847"
     inkscape:groupmode="layer"
     inkscape:label="pants"
     transform="matrix(1.25,0,0,-1.25,-84.498967,953.436)"><g
       transform="matrix(0,-1,1,0,111.88428,660.96028)"
       id="g2905"><g
         id="g2907"><g
           id="g2909" /><rect
           style="fill:#ffffff;fill-opacity:1;fill-rule:nonzero;stroke:none"
           id="rect2956"
           width="102.4456"
           height="79.7696"
           x="-44.285107"
           y="-101.78827"
           transform="matrix(0,1,1,0,0,0)" /><g
           id="g2911"
           transform="translate(-95.920002,6.9376)"><g
             id="g2913"><g
               id="g2915"><g
                 id="g2917"><path
                   id="path2919"
                   style="fill:none;stroke:#000000;stroke-width:0.3985;stroke-linecap:butt;stroke-linejoin:miter;stroke-miterlimit:10;stroke-opacity:1;stroke-dasharray:0.3985, 1.99255;stroke-dashoffset:0"
                   d="M 0,17.00781 C -3.14622,17.00781 -5.66927,9.43869 -5.66927,0 -5.66927,-9.43869 -3.14622,-17.00781 0,-17.00781" /></g><path
                 id="path2921"
                 style="fill:none;stroke:#000000;stroke-width:0.3985;stroke-linecap:butt;stroke-linejoin:miter;stroke-miterlimit:10;stroke-opacity:1;stroke-dasharray:none"
                 d="M 0,-17.00781 C 3.14622,-17.00781 5.66927,-9.43869 5.66927,0 5.66927,9.43869 3.14622,17.00781 0,17.00781" /></g><g
               id="g2923"><g
                 id="g2925"><path
                   id="path2927"
                   style="fill:none;stroke:#000000;stroke-width:0.3985;stroke-linecap:butt;stroke-linejoin:miter;stroke-miterlimit:10;stroke-opacity:1;stroke-dasharray:0.3985, 1.99255;stroke-dashoffset:0"
                   d="m 68.03256,51.02345 c -3.14624,0 -5.66928,-7.56912 -5.66928,-17.00781 0,-9.43871 2.52304,-17.00783 5.66928,-17.00783" /></g><path
                 id="path2929"
                 style="fill:none;stroke:#000000;stroke-width:0.3985;stroke-linecap:butt;stroke-linejoin:miter;stroke-miterlimit:10;stroke-opacity:1;stroke-dasharray:none"
                 d="m 68.03256,17.00781 c 3.14623,0 5.66927,7.56912 5.66927,17.00783 0,9.43869 -2.52304,17.00781 -5.66927,17.00781" /></g><g
               id="g2931"><g
                 id="g2933"><path
                   id="path2935"
                   style="fill:none;stroke:#000000;stroke-width:0.3985;stroke-linecap:butt;stroke-linejoin:miter;stroke-miterlimit:10;stroke-opacity:1;stroke-dasharray:0.3985, 1.99255;stroke-dashoffset:0"
                   d="m 68.03256,-17.00781 c -3.14624,0 -5.66928,-7.56912 -5.66928,-17.00783 0,-9.43869 2.52304,-17.00781 5.66928,-17.00781" /></g><path
                 id="path2937"
                 style="fill:none;stroke:#000000;stroke-width:0.3985;stroke-linecap:butt;stroke-linejoin:miter;stroke-miterlimit:10;stroke-opacity:1;stroke-dasharray:none"
                 d="m 68.03256,-51.02345 c 3.14623,0 5.66927,7.56912 5.66927,17.00781 0,9.43871 -2.52304,17.00783 -5.66927,17.00783" /></g><g
               id="g2939"><path
                 id="path2941"
                 style="fill:none;stroke:#000000;stroke-width:0.3985;stroke-linecap:butt;stroke-linejoin:miter;stroke-miterlimit:10;stroke-opacity:1;stroke-dasharray:none"
                 d="m 0,17.00781 c 22.6771,0 45.35419,34.01564 68.03256,34.01564" /></g><g
               id="g2943"><path
                 id="path2945"
                 style="fill:none;stroke:#000000;stroke-width:0.3985;stroke-linecap:butt;stroke-linejoin:miter;stroke-miterlimit:10;stroke-opacity:1;stroke-dasharray:none"
                 d="m 0,-17.00781 c 22.6771,0 45.35419,-34.01564 68.03256,-34.01564" /></g><path
               id="path2947"
               style="fill:none;stroke:#000000;stroke-width:0.3985;stroke-linecap:butt;stroke-linejoin:miter;stroke-miterlimit:10;stroke-opacity:1;stroke-dasharray:none"
               d="m 68.03256,17.00781 c -22.67711,0 -22.67711,-34.01562 0,-34.01562" /></g><g
             id="g2949"><g
               id="g2951"><path
                 id="path2953"
                 style="fill:#e6e6e6;fill-opacity:1;fill-rule:nonzero;stroke:#000000;stroke-width:0.3985;stroke-linecap:butt;stroke-linejoin:miter;stroke-miterlimit:10;stroke-opacity:1;stroke-dasharray:none"
                 d="M 5.66927,0 C 5.66927,9.43921 3.1464,17.00781 0,17.00781 -3.1464,17.00781 -5.66927,9.43921 -5.66927,0 c 0,-9.43921 2.52287,-17.00781 5.66927,-17.00781 3.1464,0 5.66927,7.5686 5.66927,17.00781 z" /></g></g></g></g></g></g></svg>